<?xml version="1.0" encoding="UTF-8"?> <svg xmlns="http://www.w3.org/2000/svg" xmlns:xlink="http://www.w3.org/1999/xlink" version="1.1" x="0px" y="0px" viewBox="0 0 200 200" style="enable-background:new 0 0 200 200;" xml:space="preserve"> <style type="text/css"> .st0{fill:none;stroke:#253B7D;stroke-width:3.1775;stroke-linecap:round;stroke-linejoin:round;stroke-miterlimit:10;} .st1{fill:none;stroke:#253B7D;stroke-width:3.163;stroke-linecap:round;stroke-linejoin:round;stroke-miterlimit:10;} .st2{fill:#C4E54B;stroke:#253B7D;stroke-width:3.1491;stroke-linecap:round;stroke-linejoin:round;stroke-miterlimit:10;} .st3{fill:none;stroke:#253B7D;stroke-width:3.1491;stroke-linecap:round;stroke-linejoin:round;stroke-miterlimit:10;} .st4{fill:#29ABE2;stroke:#253B7D;stroke-width:3.1491;stroke-linecap:round;stroke-linejoin:round;stroke-miterlimit:10;} </style> <g id="レイヤー_1"> <path class="st0" d="M47.5,71.5c0,8.8-7.2,16-16,16s-16-7.2-16-16s7.2-16,16-16S47.5,62.7,47.5,71.5z"></path> <path class="st1" d="M31.5,118.5v-29 M13.5,101.5h36 M15.5,144.1L31.4,119 M47.4,144.1L31.4,119"></path> <path class="st2" d="M185.5,50c0,10.2-20.6,18.5-46,18.5s-46-8.3-46-18.5s20.6-18.5,46-18.5S185.5,39.8,185.5,50z"></path> <path class="st3" d="M185.5,100c0,10.2-20.6,18.5-46,18.5s-46-8.3-46-18.5s20.6-18.5,46-18.5S185.5,89.8,185.5,100z"></path> <path class="st4" d="M185.5,150c0,10.2-20.6,18.5-46,18.5s-46-8.3-46-18.5s20.6-18.5,46-18.5S185.5,139.8,185.5,150z"></path> <path class="st1" d="M58.5,99.5h35 M58,109.7l36,36 M58.2,89.8L93,55"></path> </g> <g id="レイヤー_2"> </g> </svg> 